<svg xmlns="http://www.w3.org/2000/svg" viewBox="0 0 768 63" preserveAspectRatio="none">
  <g fill="none" stroke="rgba(228, 169, 75, .86)" stroke-width="1" stroke-linecap="round" stroke-linejoin="round" vector-effect="non-scaling-stroke" shape-rendering="geometricPrecision">
    <path d="M8.5 1.5H759.5C759.6 4.7 762 7 766.5 8.5V54.5C762 56 759.6 58.3 759.5 61.5H8.5C8.4 58.3 6 56 1.5 54.5V8.5C6 7 8.4 4.7 8.5 1.5Z"/>
    <path d="M1.5 8.5C-.6 11.2-.6 14.8 1.5 17.5M1.5 45.5C-.6 48.2-.6 51.8 1.5 54.5"/>
    <path d="M766.5 8.5C768.6 11.2 768.6 14.8 766.5 17.5M766.5 45.5C768.6 48.2 768.6 51.8 766.5 54.5"/>
    <path d="M8.5 1.5C5.9 1.4 4.9 4.8 7.1 5.7C9.3 6.6 11.4 4.1 9.1 2.5M8.5 61.5C5.9 61.6 4.9 58.2 7.1 57.3C9.3 56.4 11.4 58.9 9.1 60.5M759.5 1.5C762.1 1.4 763.1 4.8 760.9 5.7C758.7 6.6 756.6 4.1 758.9 2.5M759.5 61.5C762.1 61.6 763.1 58.2 760.9 57.3C758.7 56.4 756.6 58.9 758.9 60.5"/>
  </g>
  <g fill="none" stroke="rgba(216, 169, 77, .68)" stroke-width=".6" stroke-linejoin="round" vector-effect="non-scaling-stroke">
    <path d="M1.5 28.7l2.8 2.8-2.8 2.8-2.8-2.8Z"/>
    <path d="M766.5 28.7l2.8 2.8-2.8 2.8-2.8-2.8Z"/>
  </g>
  <g fill="none" stroke="rgba(216, 169, 77, .68)" stroke-width=".6" vector-effect="non-scaling-stroke">
    <circle cx="7.4" cy="4.1" r="1.55"/>
    <circle cx="7.4" cy="58.9" r="1.55"/>
    <circle cx="760.6" cy="4.1" r="1.55"/>
    <circle cx="760.6" cy="58.9" r="1.55"/>
  </g>
</svg>
